<?xml version="1.0" encoding="utf-8"?>
<!-- Generator: Adobe Illustrator 27.0.0, SVG Export Plug-In . SVG Version: 6.00 Build 0)  -->
<svg version="1.1" id="图层_1" xmlns="http://www.w3.org/2000/svg" xmlns:xlink="http://www.w3.org/1999/xlink" x="0px" y="0px"
	 viewBox="0 0 268.1 237" style="enable-background:new 0 0 268.1 237;" xml:space="preserve">
<style type="text/css">
	.st0{opacity:0.25;fill:none;stroke:#FFFFFF;stroke-width:6;stroke-miterlimit:10;enable-background:new    ;}
	.st1{opacity:0.25;}
	.st2{fill:#FFFFFF;}
</style>
<polygon class="st0" points="43.7,60.7 42.7,173 157.4,196.3 243.6,145.8 156.6,37 109,68.5 "/>
<g class="st1">
	<path class="st2" d="M77.6,110.7H54.4l-0.1-42H61l0.1,35.3h16.5V110.7z"/>
	<path class="st2" d="M79.3,95.1c1.9-3.2,4.4-5.7,7.6-7.6s6.7-2.8,10.5-2.8s7.3,0.9,10.4,2.8c3.2,1.9,5.7,4.4,7.6,7.6
		s2.8,6.7,2.8,10.4c0,3.8-0.9,7.3-2.8,10.5s-4.4,5.7-7.6,7.6c-3.2,1.9-6.7,2.8-10.4,2.8c-3.8,0-7.3-0.9-10.5-2.8
		c-3.2-1.9-5.7-4.4-7.6-7.6s-2.8-6.7-2.8-10.5C76.5,101.8,77.4,98.3,79.3,95.1z M104.7,118c2.1-1.2,3.8-2.9,5-5.1s1.8-4.6,1.8-7.3
		c0-2.7-0.6-5.2-1.8-7.3c-1.2-2.1-2.9-3.8-5-5s-4.6-1.8-7.3-1.8c-2.7,0-5.2,0.6-7.3,1.8c-2.2,1.2-3.9,2.9-5.1,5s-1.8,4.6-1.8,7.3
		c0,2.8,0.6,5.2,1.8,7.4c1.2,2.1,2.9,3.8,5,5s4.6,1.8,7.4,1.8C100.2,119.8,102.6,119.2,104.7,118z"/>
	<path class="st2" d="M132.6,62.9l20.6,53.7H146l-7.1-18.5c-2.4,0-4.2,0.2-5.5,0.4c-1.3,0.2-3,0.7-4.9,1.5l-14.2,5.4L132.6,62.9z
		 M131.3,92c1.5-0.3,3.2-0.5,5-0.6l-4.1-10.8l-5.5,12.8l-0.7,0.3C128,92.9,129.8,92.3,131.3,92z"/>
	<path class="st2" d="M153.1,79.3c3.9-0.7,7.5-1.1,10.9-1.1c5.4,0,9.7,0.8,13,2.5s5.6,3.5,6.9,5.4c1.3,1.9,2.4,3.8,3.1,5.7
		c0.4,1.2,0.8,2.6,1.1,4.3c0.3,1.7,0.5,3.4,0.5,5.2c0,5.1-1.4,9.5-4.3,13.1c-2.8,3.6-7.6,5.4-14.4,5.4H153L153.1,79.3L153.1,79.3z
		 M170,113.1c4.4,0,7.5-1.1,9.3-3.3c1.8-2.2,2.8-4.9,2.8-8.2c0-2.5-0.4-4.9-1.3-7.3c-0.6-1.6-1.4-3-2.3-4.3c-1-1.3-2.6-2.5-4.9-3.5
		c-2.3-1.1-5.4-1.6-9.3-1.6c-1.5,0-3,0.1-4.4,0.2v28C159.9,113.1,170,113.1,170,113.1z"/>
	<path class="st2" d="M62.6,163.8l-0.1-41.9h6.7l0.1,41.9H62.6z"/>
	<path class="st2" d="M112.1,130.9v53.5l-22.7-32.1V173h-6.7v-41.6l22.7,32.1v-32.4h6.7C112.1,131.1,112.1,130.9,112.1,130.9z"/>
	<path class="st2" d="M148.5,164.3c-2.2,0.9-4.6,1.3-7.2,1.3c-3.8,0-7.2-0.9-10.4-2.8c-3.2-1.9-5.7-4.4-7.6-7.6
		c-1.9-3.2-2.8-6.6-2.8-10.4c0-3.7,0.9-7.2,2.8-10.4s4.4-5.7,7.6-7.6c3.2-1.9,6.6-2.8,10.4-2.8c2.6,0,5.1,0.5,7.5,1.4s4.5,2.3,6.4,4
		l-4.5,4.9c-1.3-1.2-2.8-2.1-4.3-2.7c-1.5-0.6-3.2-0.9-5.1-0.9c-2.7,0-5.2,0.6-7.3,1.8s-3.8,2.9-5,5s-1.8,4.5-1.8,7.2
		s0.6,5.2,1.8,7.3c1.2,2.1,2.9,3.8,5,5s4.6,1.8,7.3,1.8c1.8,0,3.5-0.3,5.2-1v-8.7h6.7v15.1L148.5,164.3L148.5,164.3z"/>
	<rect x="164.1" y="144.8" class="st2" width="8.8" height="8.8"/>
	<rect x="184.2" y="144.8" class="st2" width="8.8" height="8.8"/>
	<rect x="205" y="144.8" class="st2" width="8.8" height="8.8"/>
</g>
</svg>
