<svg id="图层_1" data-name="图层 1" xmlns="http://www.w3.org/2000/svg" viewBox="0 0 268.07 236.98"><defs><style>.cls-1{fill:#d50067;stroke:#d50067;stroke-miterlimit:10;stroke-width:11px;}.cls-2{fill:#fff;}</style></defs><polygon class="cls-1" points="36.16 67.96 35.16 180.24 149.88 203.53 236.1 153.01 149.03 44.23 101.42 75.69 36.16 67.96"/><path class="cls-2" d="M62,166.83V156.35q0-7.22-1.55-11.17a15.23,15.23,0,0,0-4.81-6.53,36,36,0,0,1-5.24-5.11,21.78,21.78,0,0,1-3.57-6.83,33.47,33.47,0,0,1-1.41-10.49V102.39H55.71v13.83a28.26,28.26,0,0,0,.64,6.79,9.91,9.91,0,0,0,1.94,4,28.51,28.51,0,0,0,3.86,3.56q10.14,8.25,10.14,25.78v10.48Z"/><path class="cls-2" d="M72.29,78.1H93.78A19.59,19.59,0,0,1,104,80.62a16.82,16.82,0,0,1,6.37,6.66,18.85,18.85,0,0,1,0,17.56,17,17,0,0,1-6.41,6.7,19.37,19.37,0,0,1-10.19,2.56H81.91v24.14H72.29ZM100.8,102a8,8,0,0,0,2.53-5.93,7.94,7.94,0,0,0-2.53-5.85,9.56,9.56,0,0,0-7-2.49H81.91v16.76H93.78A9.56,9.56,0,0,0,100.8,102Z"/><path class="cls-2" d="M103.42,114.56l29.43,76.91H122.59L112.48,165a56.54,56.54,0,0,0-7.9.56,38.6,38.6,0,0,0-7,2.09L77.2,175.43Zm-1.8,41.7a47,47,0,0,1,7.17-.8l-5.85-15.4L95,158.27l-1,.4A42.25,42.25,0,0,1,101.62,156.26Z"/><path class="cls-2" d="M157.86,146.88a33.61,33.61,0,0,1-9.1,2.41c-.64.05-1.55.08-2.73.08a30,30,0,0,1-14.43-3.57,29.37,29.37,0,0,1-10.83-9.91,30.42,30.42,0,0,1-4.89-14.19c0-.59-.08-1.5-.08-2.73a30.19,30.19,0,0,1,13.43-25.22,29.43,29.43,0,0,1,14.16-4.85c.58-.05,1.49-.08,2.72-.08a30.3,30.3,0,0,1,10.39,1.81,29.22,29.22,0,0,1,8.94,5.09l-6.1,7.38a20,20,0,0,0-12.83-4.66A23.12,23.12,0,0,0,135.45,101a18.18,18.18,0,0,0-7.42,7.14,20.79,20.79,0,0,0-2.61,10.5A23.19,23.19,0,0,0,128,129.72a18.18,18.18,0,0,0,7.14,7.42,20.71,20.71,0,0,0,10.42,2.6,22.14,22.14,0,0,0,2.25-.08,22.39,22.39,0,0,0,6.41-1.6,21.07,21.07,0,0,0,5.29-3.29l6.26,7.38A32.29,32.29,0,0,1,157.86,146.88Z"/><path class="cls-2" d="M195.21,170H176q-16.44,0-16.44-13.39V109.92h35.61v9.62h-26v14.6H195v9.62H169.23v12.83a3.4,3.4,0,0,0,.84,2.56,3.89,3.89,0,0,0,2.16,1,28,28,0,0,0,3.81.2h19.17Z"/></svg>